<svg width="104" height="88" viewBox="0 0 104 88" fill="current" xmlns="http://www.w3.org/2000/svg">
<path d="M2 64.6762L15.4412 19.1932H77.0469L63.6057 64.6762H2Z"  stroke="black" stroke-width="1.8974"/>
<path d="M81.6777 1V0.0512982H80.937L80.7574 0.769906L81.6777 1ZM103 1.9487C103.524 1.9487 103.949 1.52395 103.949 1C103.949 0.476046 103.524 0.0512982 103 0.0512982V1.9487ZM78.1092 19.1857L82.5981 1.23009L80.7574 0.769906L76.2685 18.7255L78.1092 19.1857ZM81.6777 1.9487H103V0.0512982H81.6777V1.9487Z" fill="black"/>
<path d="M13.2223 31.3H44.6445" stroke="black" stroke-width="1.8974" stroke-linecap="round"/>
<ellipse cx="19.3945" cy="80.1084" rx="6.17222" ry="6.17222"  stroke="black" stroke-width="1.8974"/>
<ellipse cx="46.3278" cy="80.1084" rx="6.17222" ry="6.17222"  stroke="black" stroke-width="1.8974"/>
</svg>
