<svg width="92" height="77" viewBox="0 0 92 77" fill="none" xmlns="http://www.w3.org/2000/svg">
<path d="M2 57L13.8209 17H68L56.1791 57H2Z" fill="#F7E9DB" stroke="black" stroke-width="2"/>
<path d="M72.0726 1V0H71.2918L71.1024 0.757464L72.0726 1ZM90.8244 2C91.3767 2 91.8244 1.55228 91.8244 1C91.8244 0.447715 91.3767 0 90.8244 0V2ZM69.095 17.0335L73.0427 1.24254L71.1024 0.757464L67.1547 16.5485L69.095 17.0335ZM72.0726 2H90.8244V0H72.0726V2Z" fill="black"/>
<path d="M11.8694 27.6474H39.5037" stroke="black" stroke-width="2" stroke-linecap="round"/>
<ellipse cx="17.2976" cy="70.5719" rx="5.42816" ry="5.42816" fill="#F7E9DB" stroke="black" stroke-width="2"/>
<ellipse cx="40.9841" cy="70.5719" rx="5.42816" ry="5.42816" fill="#F7E9DB" stroke="black" stroke-width="2"/>
</svg>
