<svg width="68" height="68" viewBox="0 0 68 68" fill="none" xmlns="http://www.w3.org/2000/svg">
<circle cx="34" cy="34" r="33" fill="#F7E9DB" stroke="black" stroke-width="2"/>
<path d="M31.6136 40.8239V39.1534C31.625 37.733 31.7955 36.5398 32.125 35.5739C32.4545 34.608 32.9773 33.75 33.6932 33C34.4091 32.2386 35.3466 31.4716 36.5057 30.6989C37.4943 30.017 38.3011 29.3523 38.9261 28.7045C39.5511 28.0455 40.0057 27.358 40.2898 26.642C40.5852 25.9261 40.733 25.142 40.733 24.2898C40.733 22.9602 40.4148 21.7898 39.7784 20.7784C39.1534 19.7557 38.3011 18.9602 37.2216 18.392C36.1534 17.8125 34.9489 17.5227 33.608 17.5227C32.267 17.5227 31.0511 17.8239 29.9602 18.4261C28.8693 19.0284 27.9943 19.875 27.3352 20.9659C26.6761 22.0568 26.3295 23.3409 26.2955 24.8182H24.1307C24.1648 23.0114 24.5966 21.4148 25.4261 20.0284C26.267 18.642 27.3977 17.5625 28.8182 16.7898C30.2386 16.0057 31.8352 15.6136 33.608 15.6136C35.392 15.6136 36.9773 15.9943 38.3636 16.7557C39.75 17.5057 40.8352 18.5398 41.6193 19.858C42.4148 21.1761 42.8125 22.6761 42.8125 24.358C42.8125 25.4148 42.642 26.3864 42.3011 27.2727C41.9602 28.1477 41.4261 28.9773 40.6989 29.7614C39.9716 30.5455 39.0284 31.3409 37.8693 32.1477C36.8125 32.875 35.9773 33.5682 35.3636 34.2273C34.7614 34.8864 34.3352 35.6023 34.0852 36.375C33.8352 37.1477 33.7102 38.0739 33.7102 39.1534V40.8239H31.6136ZM32.7045 51.2216C32.1932 51.2216 31.7557 51.0455 31.392 50.6932C31.0398 50.3295 30.8636 49.892 30.8636 49.3807C30.8636 48.8807 31.0398 48.4489 31.392 48.0852C31.7557 47.7216 32.1932 47.5398 32.7045 47.5398C33.2159 47.5398 33.6477 47.7216 34 48.0852C34.3636 48.4489 34.5455 48.8807 34.5455 49.3807C34.5455 49.7216 34.4602 50.0341 34.2898 50.3182C34.1307 50.5909 33.9091 50.8125 33.625 50.983C33.3523 51.142 33.0455 51.2216 32.7045 51.2216Z" fill="black"/>
</svg>
