<svg width="84" height="85" viewBox="0 0 84 85" fill="none" xmlns="http://www.w3.org/2000/svg">
<path d="M13.3346 46.4269L13.3485 46.415L13.362 46.4026C28.5106 32.4061 38.6231 23.1503 43.7064 18.6283C50.9784 12.1593 55.3676 8.34402 58.2179 6.06442C61.0875 3.76945 62.2932 3.12038 63.2172 2.85127C63.3748 2.80567 63.6884 2.74712 64.0484 2.75398C64.4098 2.76087 64.7503 2.83217 65.0186 2.98333C65.4826 3.24476 65.7598 3.73321 65.98 4.2501C66.1938 4.75213 66.6138 5.94709 66.7878 6.88672C68.9625 18.6307 72.5257 47.6601 73.9862 61.1271C74.2882 63.912 74.1369 65.7544 73.7793 66.9306C73.4294 68.0813 72.9137 68.5127 72.4884 68.6789C71.12 69.2134 69.671 69.0176 67.9415 68.3766C67.078 68.0565 66.1814 67.6397 65.2187 67.1783C65.0605 67.1025 64.9005 67.0255 64.7387 66.9476C63.9282 66.5573 63.0744 66.1462 62.1957 65.7669C58.9789 64.3783 56.4457 63.2314 53.9292 62.0891L53.5959 61.9378C51.1904 60.8459 48.7724 59.7482 45.7686 58.4424C44.0296 57.6864 43.038 56.9502 42.4967 56.267C41.9859 55.6224 41.8308 54.9697 41.896 54.2198C41.9656 53.4202 42.2868 52.5091 42.7811 51.4069C42.9976 50.9243 43.2372 50.4259 43.492 49.896C43.5248 49.8279 43.5577 49.7593 43.591 49.6901C43.8802 49.0881 44.1838 48.4506 44.4742 47.7853C44.607 47.481 45.3007 46.1026 46.2896 44.1378C47.4146 41.9023 48.9217 38.9078 50.4195 35.8723C51.8158 33.0424 53.1946 30.1952 54.2185 27.9503C54.7297 26.8295 55.158 25.8467 55.4568 25.0862C55.6056 24.7073 55.7283 24.3684 55.8133 24.0874C55.8822 23.8599 55.9783 23.5147 55.9566 23.2048C55.9418 22.9921 55.8729 22.6569 55.7381 22.3231C55.6087 22.0029 55.3528 21.5184 54.8619 21.2115C54.3406 20.8857 53.8051 20.8971 53.3966 21.0025C53.0274 21.0977 52.7112 21.2826 52.5427 21.3812L52.5356 21.3854C52.4141 21.4564 52.3227 21.5426 52.2871 21.5764C52.2362 21.6247 52.1853 21.6781 52.1374 21.7304C52.0409 21.8359 51.9246 21.9723 51.7924 22.1329C51.5264 22.4563 51.1663 22.9141 50.7153 23.5014C49.8117 24.6781 48.5226 26.4015 46.85 28.6684C43.5038 33.2037 38.6104 39.9313 32.171 48.8494L32.171 48.8494L32.1662 48.8562C30.3491 51.4177 28.6043 52.752 26.9727 53.1439C26.0274 53.3709 24.4684 53.4322 22.6421 53.3736C20.8454 53.316 18.8869 53.1467 17.197 52.9565C16.6539 52.8954 16.1402 52.8433 15.6553 52.7941C14.1897 52.6454 12.9866 52.5233 12.0245 52.2599C11.4068 52.0908 10.9955 51.8875 10.7288 51.6555C10.487 51.4453 10.32 51.1747 10.252 50.7488C10.1994 50.4196 10.2919 49.9008 10.7949 49.1302C11.2921 48.3683 12.1227 47.467 13.3346 46.4269Z" fill="#F7E9DB" stroke="black" stroke-width="2"/>
</svg>
