<svg width="84" height="84" viewBox="0 0 84 84" fill="current" xmlns="http://www.w3.org/2000/svg">
<g clip-path="url(#clip0_293_34)">
<path d="M83.25 42C83.25 64.7817 64.7817 83.25 42 83.25C19.2183 83.25 0.75 64.7817 0.75 42C0.75 19.2183 19.2183 0.75 42 0.75C64.7817 0.75 83.25 19.2183 83.25 42Z"  stroke="black" stroke-width="1.5"/>
<path fill-rule="evenodd" clip-rule="evenodd" d="M13.8221 42.5369C28.6301 35.9905 38.5044 31.6747 43.445 29.5895C57.5516 23.6359 60.4828 22.6017 62.3933 22.5675C62.8135 22.56 63.753 22.6657 64.3616 23.1668C64.8755 23.5899 65.0169 24.1614 65.0846 24.5626C65.1522 24.9637 65.2365 25.8776 65.1695 26.5916C64.4051 34.7417 61.0974 54.5197 59.4146 63.6479C58.7025 67.5104 57.3005 68.8055 55.9432 68.9322C52.9934 69.2076 50.7534 66.9541 47.8964 65.0538C43.4257 62.0801 40.9001 60.229 36.5605 57.3273C31.5454 53.9738 34.7964 52.1307 37.6546 49.1185C38.4025 48.3302 51.3994 36.3348 51.651 35.2466C51.6825 35.1105 51.7117 34.6032 51.4146 34.3353C51.1176 34.0674 50.6793 34.159 50.3629 34.2319C49.9145 34.3352 42.7726 39.1251 28.937 48.6018C26.9098 50.0143 25.0736 50.7025 23.4284 50.6665C21.6147 50.6267 18.126 49.6259 15.5324 48.7705C12.3513 47.7212 9.82306 47.1665 10.0432 45.3845C10.1579 44.4564 11.4175 43.5072 13.8221 42.5369Z" fill="#FBF4ED" stroke="black" stroke-width="1.5"/>
</g>
<defs>
<linearGradient id="paint0_linear_293_34" x1="42" y1="0" x2="42" y2="83.377" gradientUnits="userSpaceOnUse">
<stop stop-color="#9FBBDF"/>
</linearGradient>
<clipPath id="clip0_293_34">
<rect width="84" height="84" fill="white"/>
</clipPath>
</defs>
</svg>
