<svg width="84" height="84" viewBox="0 0 84 84" fill="current" xmlns="http://www.w3.org/2000/svg">
<circle cx="42" cy="42" r="41.0513" stroke="black" stroke-width="1.8974"/>
<path d="M39.3371 52.3042V50.1912C39.3515 48.3944 39.5671 46.8851 39.9839 45.6633C40.4008 44.4415 41.062 43.3563 41.9676 42.4075C42.8732 41.4445 44.059 40.4742 45.5252 39.4968C46.7758 38.6343 47.7963 37.7934 48.5869 36.9741C49.3775 36.1404 49.9525 35.2707 50.3118 34.3651C50.6856 33.4596 50.8724 32.4677 50.8724 31.3897C50.8724 29.7079 50.47 28.2273 49.665 26.948C48.8744 25.6543 47.7963 24.6481 46.4308 23.9294C45.0796 23.1963 43.5559 22.8298 41.8598 22.8298C40.1636 22.8298 38.6256 23.2107 37.2456 23.9725C35.8657 24.7344 34.7589 25.8053 33.9252 27.1852C33.0915 28.5651 32.653 30.1894 32.6099 32.0581H29.8716C29.9148 29.7726 30.461 27.753 31.5103 25.9993C32.574 24.2457 34.0042 22.8801 35.801 21.9027C37.5978 20.9108 39.6174 20.4149 41.8598 20.4149C44.1165 20.4149 46.1217 20.8965 47.8754 21.8595C49.6291 22.8082 51.0018 24.1163 51.9936 25.7837C52.9998 27.4511 53.5029 29.3485 53.5029 31.4759C53.5029 32.8127 53.2873 34.0417 52.8561 35.1629C52.4249 36.2697 51.7493 37.3191 50.8293 38.3109C49.9094 39.3027 48.7163 40.3089 47.2501 41.3295C45.9133 42.2494 44.8568 43.1263 44.0806 43.96C43.3188 44.7937 42.7797 45.6993 42.4635 46.6767C42.1473 47.6542 41.9891 48.8257 41.9891 50.1912V52.3042H39.3371ZM40.717 65.4567C40.0702 65.4567 39.5168 65.2339 39.0568 64.7883C38.6112 64.3283 38.3884 63.7749 38.3884 63.1281C38.3884 62.4956 38.6112 61.9494 39.0568 61.4894C39.5168 61.0294 40.0702 60.7994 40.717 60.7994C41.3639 60.7994 41.9101 61.0294 42.3557 61.4894C42.8157 61.9494 43.0456 62.4956 43.0456 63.1281C43.0456 63.5593 42.9378 63.9546 42.7222 64.3139C42.521 64.6589 42.2407 64.9392 41.8813 65.1548C41.5363 65.3561 41.1482 65.4567 40.717 65.4567Z" fill="black"/>
</svg>
