<svg  width="157" height="117" viewBox="0 0 157 117" fill="current" xmlns="http://www.w3.org/2000/svg">
<path d="M0 92.0001V24.8H10.272L39.648 73.8561H34.272L63.168 24.8H73.44C73.44 24.8 69.8197 74 71.3197
83C72.8197 92 74.3197 93.5 74.3197 93.5C74.3197 93.5 67.4114 92.9999 63.3197 92.5C59.228 92.0001
61.632 43.3281 61.632 43.3281H64.128L39.552 84.3201H33.984L9.024 43.3281H11.904V92.0001H0Z"/>
<path d="M138.6 70.728L136.296 25.8H150.504L148.104 70.728H138.6ZM143.4 93.672C141.16 93.672 139.304
92.936 137.832 91.464C136.36 89.992 135.624 88.232 135.624 86.184C135.624 84.136 136.36 82.408 137.832
81C139.304 79.528 141.16 78.792 143.4 78.792C145.64 78.792 147.464 79.528 148.872 81C150.28 82.408 150.984
84.136 150.984 86.184C150.984 88.232 150.28 89.992 148.872 91.464C147.464 92.936 145.64 93.672 143.4
93.672Z" />
<path d="M62.3198 92C59.8197 78 62.8645 82.491 62.3197 77.5C61.8337 72.4837 62.2573 68.5226 63.3196
65L69.3338 64.1687C68.456 67.4726 68.1545 71.2252 68.4293 75.4266C68.704 79.628 69.6634 83.6394 71.3074
87.4608C72.6985 90.6943 74.1768 93.1587 75.7422 94.854C77.3076 96.5494 78.8806 97.6145 80.4611
98.0493C82.1003 98.4588 83.6842 98.3347 85.2128 97.6771C87.0941 96.8677 88.3024 95.5467 88.8376
93.714C89.4317 91.8559 89.5842 89.7002 89.2951 87.2467C89.09 84.8268 88.7124 82.1675 88.1621
79.2691C87.6371 76.4294 87.1877 73.5223 86.8138 70.548C86.524 67.6071 86.5285 64.7835 86.8272
62.0771C87.2101 59.4042 88.1689 56.9364 89.7036 54.6737C91.2383 52.411 93.6518 50.5715 96.944
49.1551C100.295 47.7134 103.732 47.2801 107.253 47.855C110.859 48.4635 114.27 50.2361 117.484
53.1729C120.782 56.1432 123.645 60.4503 126.074 66.0941C127.667 69.7979 128.777 73.6746 129.405
77.7243C130.032 81.774 130.046 85.5304 129.446 88.9935L118.984 89.2097C119.441 85.7384 119.419
82.3686 118.919 79.1003C118.478 75.8067 117.675 72.8077 116.512 70.1033C115.146 66.9287 113.651
64.5063 112.027 62.8362C110.428 61.225 108.809 60.2146 107.169 59.8051C105.555 59.4544 103.955
59.6205 102.367 60.3034C100.486 61.1127 99.2357 62.417 98.6163 64.2163C98.081 66.049 97.9453
68.1627 98.2091 70.5574C98.4983 73.0108 98.8886 75.6994 99.38 78.6232C99.9303 81.5217 100.38
84.4287 100.728 87.3443C101.102 90.3187 101.127 93.1296 100.803 95.7772C100.504 98.4836 99.5749
100.939 98.0149 103.143C96.4802 105.405 94.0961 107.232 90.8626 108.623C87.5704 110.04 84.1213
110.444 80.5153 109.835C76.9933 109.26 73.5832 107.488 70.2849 104.517C67.0453 101.522 64.7479
97.6439 62.3198 92Z"/>
</svg>
