<svg width="304" height="306" viewBox="0 0 304 306" fill="none" xmlns="http://www.w3.org/2000/svg">
<mask id="path-1-inside-1_527_4" fill="white">
<path fill-rule="evenodd" clip-rule="evenodd" d="M265 17C274.389 17 282 9.38884 282 0H304V306H0V0H20C20 9.38884 27.6112 17 37 17C46.3888 17 54 9.38884 54 0H77C77 9.38884 84.6112 17 94 17C103.389 17 111 9.38884 111 0H134C134 9.38884 141.611 17 151 17C160.389 17 168 9.38884 168 0H191C191 9.38884 198.611 17 208 17C217.389 17 225 9.38884 225 0H248C248 9.38884 255.611 17 265 17Z"/>
</mask>
<path fill-rule="evenodd" clip-rule="evenodd" d="M265 17C274.389 17 282 9.38884 282 0H304V306H0V0H20C20 9.38884 27.6112 17 37 17C46.3888 17 54 9.38884 54 0H77C77 9.38884 84.6112 17 94 17C103.389 17 111 9.38884 111 0H134C134 9.38884 141.611 17 151 17C160.389 17 168 9.38884 168 0H191C191 9.38884 198.611 17 208 17C217.389 17 225 9.38884 225 0H248C248 9.38884 255.611 17 265 17Z" fill="#F5E4D3"/>
<path d="M282 0V-1.5H280.5V0H282ZM304 0H305.5V-1.5H304V0ZM304 306V307.5H305.5V306H304ZM0 306H-1.5V307.5H0V306ZM0 0V-1.5H-1.5V0H0ZM20 0H21.5V-1.5H20V0ZM54 0V-1.5H52.5V0H54ZM77 0H78.5V-1.5H77V0ZM111 0V-1.5H109.5V0H111ZM134 0H135.5V-1.5H134V0ZM168 0V-1.5H166.5V0H168ZM191 0H192.5V-1.5H191V0ZM225 0V-1.5H223.5V0H225ZM248 0H249.5V-1.5H248V0ZM280.5 0C280.5 8.56041 273.56 15.5 265 15.5V18.5C275.217 18.5 283.5 10.2173 283.5 0H280.5ZM282 1.5H304V-1.5H282V1.5ZM302.5 0V306H305.5V0H302.5ZM304 304.5H0V307.5H304V304.5ZM1.5 306V0H-1.5V306H1.5ZM0 1.5H20V-1.5H0V1.5ZM18.5 0C18.5 10.2173 26.7827 18.5 37 18.5V15.5C28.4396 15.5 21.5 8.56041 21.5 0H18.5ZM37 18.5C47.2173 18.5 55.5 10.2173 55.5 0H52.5C52.5 8.56041 45.5604 15.5 37 15.5V18.5ZM54 1.5H77V-1.5H54V1.5ZM75.5 0C75.5 10.2173 83.7827 18.5 94 18.5V15.5C85.4396 15.5 78.5 8.56041 78.5 0H75.5ZM94 18.5C104.217 18.5 112.5 10.2173 112.5 0H109.5C109.5 8.56041 102.56 15.5 94 15.5V18.5ZM111 1.5H134V-1.5H111V1.5ZM132.5 0C132.5 10.2173 140.783 18.5 151 18.5V15.5C142.44 15.5 135.5 8.56041 135.5 0H132.5ZM151 18.5C161.217 18.5 169.5 10.2173 169.5 0H166.5C166.5 8.56041 159.56 15.5 151 15.5V18.5ZM168 1.5H191V-1.5H168V1.5ZM189.5 0C189.5 10.2173 197.783 18.5 208 18.5V15.5C199.44 15.5 192.5 8.56041 192.5 0H189.5ZM208 18.5C218.217 18.5 226.5 10.2173 226.5 0H223.5C223.5 8.56041 216.56 15.5 208 15.5V18.5ZM225 1.5H248V-1.5H225V1.5ZM265 15.5C256.44 15.5 249.5 8.56041 249.5 0H246.5C246.5 10.2173 254.783 18.5 265 18.5V15.5Z" fill="black" mask="url(#path-1-inside-1_527_4)"/>
<path d="M27 153L276 153" stroke="black" stroke-width="1.5" stroke-linecap="round" stroke-dasharray="10 15"/>
</svg>
